<?xml version="1.0" encoding="utf-8"?>
<!-- Generator: Adobe Illustrator 25.0.0, SVG Export Plug-In . SVG Version: 6.00 Build 0)  -->
<svg version="1.1" id="Layer_1" xmlns="http://www.w3.org/2000/svg" xmlns:xlink="http://www.w3.org/1999/xlink" x="0px" y="0px"
	 viewBox="0 0 32 32" style="enable-background:new 0 0 32 32;" xml:space="preserve">
<style type="text/css">
	.st0{fill:#FFFFFF;}
</style>
<path class="st0" d="M16.5,11.7L16.5,11.7c0-0.1-0.2-0.4-0.2-0.5v0C11.8,2,1.7,2.3,0.2,6.4C-1,9.6,4.3,17.1,16.5,11.7L16.5,11.7z
	 M13.2,25.6c-0.8-1.8-1.2-3.7-1.3-5.7c-1.3,2-2.2,4-2.9,5.5c0,0.1-0.5,1.2-0.6,1.6c-0.2,0.4,0.1,1,0.5,1.1c0.4,0.1,1.6,0.6,1.6,0.6
	c1.5,0.5,3.6,1.1,5.9,1.5C15.1,29,14,27.4,13.2,25.6L13.2,25.6z M18.5,10.8c6.9-3.1,5.9-8.4,4.2-9.1c-2.4-0.9-6.8,2.6-4.3,8.8
	C18.4,10.6,18.5,10.8,18.5,10.8z M31.2,17.6L31.2,17.6c-1-2.4-3-4-5.2-4.8c-0.2-0.1-0.5-0.1-0.7-0.1c-1.2,0-2.3,1-2.4,2.2
	c-0.2,2,0.2,4.1,1.1,6c0.9,1.9,2.1,3.6,3.7,4.8c0.4,0.3,0.9,0.5,1.4,0.5c0.9,0,1.8-0.5,2.2-1.3C32.2,22.5,32.3,20,31.2,17.6
	L31.2,17.6z M26,27.9L26,27.9c-1.9-1.5-3.5-3.5-4.6-5.9c-1.1-2.5-1.6-5-1.3-7.4c0.1-0.7,0.3-1.3,0.6-2l-0.2,0c-1,0.2-2,0.7-2.9,1.3
	c-1.3,0.8-2.4,2.1-2.9,3.5c-0.1,0.4-0.2,0.8-0.3,1.2c-0.2,2,0.2,4,1,6c0.8,1.9,2.1,3.4,3.6,4.6c0.9,0.7,2.6,1.2,3.9,1.2
	c1.3,0,2.5-0.4,3.6-0.9c0.3-0.2,1.1-0.7,1.2-0.7C27.1,28.6,26.5,28.3,26,27.9L26,27.9z"/>
</svg>
